<svg fill="none" height="24" viewBox="0 0 24 24" width="24" xmlns="http://www.w3.org/2000/svg"><g fill="#219ed3"><path d="m12.0004 0c-4.99515 0-9.05899 4.06384-9.05899 9.0589 0 2.0648 1.4521 5.1244 4.31602 9.0935 2.09071 2.8975 4.21187 5.2581 4.23297 5.2817l.5099.5659.5099-.5659c.0212-.0235 2.1423-2.3841 4.233-5.2817 2.8639-3.9692 4.316-7.0287 4.316-9.0935.0001-4.99506-4.0638-9.0589-9.0588-9.0589zm-.0001 21.9378c-2.54358-2.9302-7.68607-9.5439-7.68607-12.8789-.00007-4.23812 3.44796-7.68614 7.68617-7.68614 4.2382 0 7.6861 3.44802 7.6861 7.68614 0 3.333-5.1426 9.948-7.6862 12.8789z"/><path d="m11.9999 12.47c1.8839 0 3.411-1.5272 3.411-3.41102 0-1.88386-1.5271-3.41103-3.411-3.41103s-3.41103 1.52717-3.41103 3.41103c0 1.88382 1.52713 3.41102 3.41103 3.41102z"/></g></svg>