<svg fill="none" height="18" viewBox="0 0 18 18" width="18" xmlns="http://www.w3.org/2000/svg" xmlns:xlink="http://www.w3.org/1999/xlink"><clipPath id="a"><path d="m0 0h18v18h-18z"/></clipPath><g clip-path="url(#a)"><path d="m5.27983 12.8074s2.50574 2.5956 5.86467 3.8978c.9475.3907 3.0177.9071 3.9562.1527 0 0 2.3351-1.7154 2.1375-2.6449 0-.6512-.5927-1.1227-1.3651-1.922-.5523-.5703-1.0822-1.1765-1.5043-1.4415-.3054-.1931-.4042-.1751-.7365-.2155-.8353-.027-2.1196 1.9938-2.5147 1.895-1.56724-.5299-3.27365-2.2767-3.27365-2.2767l.00449.0045s-1.74684-1.71093-2.27672-3.27365c-.0988-.39068 1.91747-1.67948 1.89502-2.51472-.04042-.33231-.02694-.4311-.21555-.73646-.26494-.42211-.87117-.952-1.44147-1.50434-.79933-.77238-1.27084-1.365135-1.92197-1.365135-.92955-.202075-2.64944 2.133025-2.64944 2.133025-.758906.93404-.238 3.00868.15268 3.95619 1.30227 3.35899 3.89782 5.86469 3.89782 5.86469" stroke="#219ed3" stroke-linejoin="round" stroke-miterlimit="10" stroke-width="1.1"/></g></svg>